<svg xmlns="http://www.w3.org/2000/svg" viewBox="-49 141 512 512"><path fill="none" d="M102 357H-4.7c-2.7 13.5-4.1 27.4-4.1 41.6 0 25.8 4.6 50.5 13.1 73.4h96.9c-3.1-36.3-2.8-74.9.8-115zM24.1 512c24.5 38.7 61.2 69.2 104.6 86-10.1-26.7-17.7-55.5-22.7-86H24.1zM230.9 185.9c-7.8-.9-15.8-1.3-23.8-1.3-9.8 0-19.5.7-28.9 1.9-3.3 9.7-20.6 61.4-31 130.5H271c-12.2-62.2-31.6-111.2-40.1-131.1zM311.6 317h94.9c-23.4-56.1-70.2-100.3-128.3-120.5 10.5 28 24 69.9 33.2 119.6.1.3.2.6.2.9zM7.5 317h99.2c7.3-51.4 18.3-93.7 25.8-119.3C76 218.4 30.5 261.9 7.5 317zM418.8 357H317.7c4.6 38.6 5.3 76 2.1 111.4l-.3 3.6h90.3c8.5-22.9 13.1-47.6 13.1-73.4 0-14.2-1.4-28.1-4.1-41.6zM177.6 610.6c9.6 1.3 19.5 2 29.5 2 9.7 0 19.3-.7 28.7-1.9 18.3-31.9 30-65.4 37-98.7H146.7c5.9 33.5 15.7 67 30.9 98.6zM142.2 357c-3.3 34.6-4.5 74.1-.8 115h137.7c4.4-40.8 2.7-80.3-1.7-115H142.2zM287.3 597.3c42.6-17 78.5-47.1 102.7-85.3h-76.3c-5.7 30-14.5 58.5-26.4 85.3z"/><linearGradient id="a" x1="-48.8" x2="462.8" y1="398.6" y2="398.6" gradientUnits="userSpaceOnUse"><stop offset="0" stop-color="#FF884B"/><stop offset=".35" stop-color="#FF634C"/><stop offset=".655" stop-color="#FE4A4F"/><stop offset="1" stop-color="#FE4840"/></linearGradient><path fill="url(#a)" d="M387.9 218.9c-48.3-48-112.6-74.4-180.9-74.4S74.5 170.9 26.2 218.9c-48.4 48-75 111.8-75 179.7s26.6 131.7 75 179.7c48.3 47.9 112.5 74.4 180.8 74.4s132.5-26.4 180.8-74.4c48.4-48 75-111.8 75-179.7s-26.6-131.7-74.9-179.7zm18.7 98.1h-94.9c-.1-.3-.1-.6-.2-.9-9.2-49.7-22.7-91.5-33.2-119.6 58.1 20.2 104.9 64.4 128.3 120.5zM178.1 186.5c9.5-1.3 19.1-1.9 28.9-1.9 8.1 0 16 .5 23.8 1.3 8.6 19.9 27.9 68.9 40.1 131.1H147.1c10.4-69.2 27.7-120.9 31-130.5zM-8.8 398.6c0-14.2 1.4-28.1 4.1-41.6H102c-3.7 40.1-4 78.7-.9 115H4.3c-8.5-22.9-13.1-47.6-13.1-73.4zM24.1 512h82c5 30.5 12.5 59.3 22.7 86-43.5-16.8-80.2-47.3-104.7-86zm82.6-195H7.5c23-55.1 68.5-98.6 125-119.3-7.5 25.6-18.5 67.9-25.8 119.3zm129.1 293.7c-9.4 1.2-19 1.9-28.7 1.9-10 0-19.8-.7-29.5-2-15.2-31.6-25-65.1-30.8-98.6h126.1c-7.1 33.3-18.9 66.8-37.1 98.7zM279.1 472H141.4c-3.7-40.9-2.5-80.4.8-115h135.2c4.4 34.7 6.1 74.2 1.7 115zm8.2 125.3c11.8-26.7 20.7-55.2 26.4-85.3H390c-24.1 38.2-60.1 68.3-102.7 85.3zM319.5 472l.3-3.6c3.2-35.4 2.5-72.8-2.1-111.4h101.1c2.7 13.5 4.1 27.4 4.1 41.6 0 25.8-4.6 50.5-13.1 73.4h-90.3z"/></svg>